<svg id="visual" viewBox="0 0 900 600" width="900" height="600" xmlns="http://www.w3.org/2000/svg" xmlns:xlink="http://www.w3.org/1999/xlink" version="1.1"><path d="M746 600L728 600L728 545L584 545L584 491L728 491L728 436L674 436L674 382L692 382L692 327L728 327L728 273L575 273L575 218L683 218L683 164L728 164L728 109L611 109L611 55L674 55L674 0L900 0L900 55L900 55L900 109L900 109L900 164L900 164L900 218L900 218L900 273L900 273L900 327L900 327L900 382L900 382L900 436L900 436L900 491L900 491L900 545L900 545L900 600L900 600Z" fill="#fa7268"></path><path d="M575 600L575 600L575 545L467 545L467 491L539 491L539 436L440 436L440 382L530 382L530 327L566 327L566 273L386 273L386 218L566 218L566 164L521 164L521 109L377 109L377 55L539 55L539 0L675 0L675 55L612 55L612 109L729 109L729 164L684 164L684 218L576 218L576 273L729 273L729 327L693 327L693 382L675 382L675 436L729 436L729 491L585 491L585 545L729 545L729 600L747 600Z" fill="#ea5e66"></path><path d="M467 600L467 600L467 545L314 545L314 491L395 491L395 436L377 436L377 382L404 382L404 327L503 327L503 273L269 273L269 218L449 218L449 164L467 164L467 109L287 109L287 55L431 55L431 0L540 0L540 55L378 55L378 109L522 109L522 164L567 164L567 218L387 218L387 273L567 273L567 327L531 327L531 382L441 382L441 436L540 436L540 491L468 491L468 545L576 545L576 600L576 600Z" fill="#d84a64"></path><path d="M287 600L386 600L386 545L215 545L215 491L251 491L251 436L206 436L206 382L341 382L341 327L368 327L368 273L152 273L152 218L359 218L359 164L269 164L269 109L170 109L170 55L296 55L296 0L432 0L432 55L288 55L288 109L468 109L468 164L450 164L450 218L270 218L270 273L504 273L504 327L405 327L405 382L378 382L378 436L396 436L396 491L315 491L315 545L468 545L468 600L468 600Z" fill="#c53762"></path><path d="M0 600L0 600L0 545L0 545L0 491L0 491L0 436L0 436L0 382L0 382L0 327L0 327L0 273L0 273L0 218L0 218L0 164L0 164L0 109L0 109L0 55L0 55L0 0L297 0L297 55L171 55L171 109L270 109L270 164L360 164L360 218L153 218L153 273L369 273L369 327L342 327L342 382L207 382L207 436L252 436L252 491L216 491L216 545L387 545L387 600L288 600Z" fill="#b0235f"></path></svg>