<svg id="visual" viewBox="0 0 900 600" width="900" height="600" xmlns="http://www.w3.org/2000/svg" xmlns:xlink="http://www.w3.org/1999/xlink" version="1.1"><rect x="0" y="0" width="900" height="600" fill="#ffffff"></rect><path d="M0 217L21.5 215C43 213 86 209 128.8 211.7C171.7 214.3 214.3 223.7 257.2 215.7C300 207.7 343 182.3 385.8 171.7C428.7 161 471.3 165 514.2 176.5C557 188 600 207 642.8 214.7C685.7 222.3 728.3 218.7 771.2 215.8C814 213 857 211 878.5 210L900 209L900 0L878.5 0C857 0 814 0 771.2 0C728.3 0 685.7 0 642.8 0C600 0 557 0 514.2 0C471.3 0 428.7 0 385.8 0C343 0 300 0 257.2 0C214.3 0 171.7 0 128.8 0C86 0 43 0 21.5 0L0 0Z" fill="#fa7268"></path><path d="M0 140L21.5 142.3C43 144.7 86 149.3 128.8 160C171.7 170.7 214.3 187.3 257.2 189C300 190.7 343 177.3 385.8 168.5C428.7 159.7 471.3 155.3 514.2 154.5C557 153.7 600 156.3 642.8 160.5C685.7 164.7 728.3 170.3 771.2 166.2C814 162 857 148 878.5 141L900 134L900 0L878.5 0C857 0 814 0 771.2 0C728.3 0 685.7 0 642.8 0C600 0 557 0 514.2 0C471.3 0 428.7 0 385.8 0C343 0 300 0 257.2 0C214.3 0 171.7 0 128.8 0C86 0 43 0 21.5 0L0 0Z" fill="#ef5f67"></path><path d="M0 123L21.5 129C43 135 86 147 128.8 144C171.7 141 214.3 123 257.2 121.7C300 120.3 343 135.7 385.8 143.8C428.7 152 471.3 153 514.2 142.3C557 131.7 600 109.3 642.8 98.5C685.7 87.7 728.3 88.3 771.2 99.3C814 110.3 857 131.7 878.5 142.3L900 153L900 0L878.5 0C857 0 814 0 771.2 0C728.3 0 685.7 0 642.8 0C600 0 557 0 514.2 0C471.3 0 428.7 0 385.8 0C343 0 300 0 257.2 0C214.3 0 171.7 0 128.8 0C86 0 43 0 21.5 0L0 0Z" fill="#e34c67"></path><path d="M0 98L21.5 97.5C43 97 86 96 128.8 98.8C171.7 101.7 214.3 108.3 257.2 102C300 95.7 343 76.3 385.8 76.3C428.7 76.3 471.3 95.7 514.2 98.8C557 102 600 89 642.8 86.8C685.7 84.7 728.3 93.3 771.2 96.7C814 100 857 98 878.5 97L900 96L900 0L878.5 0C857 0 814 0 771.2 0C728.3 0 685.7 0 642.8 0C600 0 557 0 514.2 0C471.3 0 428.7 0 385.8 0C343 0 300 0 257.2 0C214.3 0 171.7 0 128.8 0C86 0 43 0 21.5 0L0 0Z" fill="#d53867"></path><path d="M0 72L21.5 71.8C43 71.7 86 71.3 128.8 66.2C171.7 61 214.3 51 257.2 50C300 49 343 57 385.8 55.8C428.7 54.7 471.3 44.3 514.2 42.2C557 40 600 46 642.8 51.3C685.7 56.7 728.3 61.3 771.2 64.8C814 68.3 857 70.7 878.5 71.8L900 73L900 0L878.5 0C857 0 814 0 771.2 0C728.3 0 685.7 0 642.8 0C600 0 557 0 514.2 0C471.3 0 428.7 0 385.8 0C343 0 300 0 257.2 0C214.3 0 171.7 0 128.8 0C86 0 43 0 21.5 0L0 0Z" fill="#c62368"></path></svg>